<svg class="svg-icon" style="width: 1em; height: 1em;vertical-align: middle;fill: currentColor;overflow: hidden;" viewBox="0 0 1024 1024" version="1.1" xmlns="http://www.w3.org/2000/svg"><path d="M835.7 249.6c118.8 189.2 61.8 438.9-127.5 557.7s-438.9 61.8-557.7-127.5S364.4 288.1 377.1 280c15.9-9.8 339.8-219.6 458.6-30.4z" fill="#734D3A" /><path d="M143.588766 632.299825a165 385.1 57.874 1 0 652.26751-409.579218 165 385.1 57.874 1 0-652.26751 409.579218Z" fill="#996249" /><path d="M176.158972 604.185869a133.9 342.6 57.874 1 0 580.282651-364.377668 133.9 342.6 57.874 1 0-580.282651 364.377668Z" fill="#FDFFFE" /><path d="M239.850104 556.256401a98.3 264.9 57.874 1 0 448.677391-281.7386 98.3 264.9 57.874 1 0-448.677391 281.7386Z" fill="#ECDCB8" /><path d="M426.9 539.6c1.1 1.7 2.3 3.4 3.5 4.9 27.8-12.3 56.9-27.6 85.9-45.9 123.9-77.8 201-178.1 172.1-224.1-8.4-13.4-24.9-20.6-47-22.3-6.3 3.7-12.5 7.4-18.8 11.4-146 91.8-233.7 215.4-195.7 276z" fill="#F2EBCE" /><path d="M713.7 816C520 937.7 263.4 879 141.8 685.3c-25.7-40.9-33.2-85.5-22.3-132.6 31.9-138.3 215.1-258.1 251.4-280.9l0.9-0.5 1.1-0.7c0.8-0.5 1.5-1 2.3-1.5C429 235.3 602.3 136 734.5 165.9c47.2 10.7 84.2 37 110 78.1 121.6 193.8 62.9 450.4-130.8 572z m-334-525.4c-39.4 24.8-210.6 138.7-240.2 266.7-9.6 41.5-2.9 80.9 19.7 117 115.6 184.1 359.4 239.8 543.5 124.2S942.6 439.1 827 255c-22.8-36.3-55.5-59.5-97.1-68.9-129.7-29.4-310.8 79.9-346 102l-1.1 0.7-0.9 0.6c-0.8 0.4-1.5 0.8-2.2 1.2z" fill="#63392B" /><path d="M533.8 599.8c5.6 1.7 10 4.4 14.1 7.4 4 3 7.6 6.5 10.8 10.2 3.2 3.8 5.9 7.9 8.2 12.4 2.2 4.5 4.1 9.4 4.8 15.2-5.6-1.7-10.1-4.4-14.1-7.4s-7.6-6.5-10.7-10.2c-3.2-3.8-5.9-7.9-8.2-12.4-2.3-4.6-4.2-9.4-4.9-15.2zM599 673.8c5.6 1.7 10 4.4 14.1 7.4 4 3 7.6 6.5 10.8 10.2 3.2 3.8 5.9 7.9 8.2 12.4 2.2 4.5 4.1 9.4 4.8 15.2-5.6-1.7-10.1-4.4-14.1-7.4s-7.6-6.5-10.7-10.2c-3.2-3.8-5.9-7.9-8.2-12.4-2.3-4.5-4.2-9.3-4.9-15.2zM597 560c5 3.1 8.6 6.8 11.8 10.7 3.1 4 5.7 8.2 7.8 12.6 2.1 4.4 3.8 9.1 4.8 14 1 5 1.6 10.1 0.8 15.9-5-3.1-8.6-6.8-11.8-10.7-3.1-4-5.7-8.2-7.8-12.6-2.1-4.4-3.7-9.1-4.8-14-0.9-4.9-1.5-10.1-0.8-15.9zM667.5 732.2c5.3 2.4 9.4 5.7 13 9.2 3.6 3.5 6.7 7.4 9.3 11.5 2.7 4.1 4.9 8.6 6.5 13.3 1.6 4.8 2.9 9.8 2.8 15.7-5.4-2.4-9.4-5.7-13.1-9.2-3.6-3.5-6.7-7.4-9.3-11.6-2.6-4.2-4.8-8.6-6.5-13.3-1.5-4.7-2.7-9.8-2.7-15.6zM641.4 647.1c5 3.1 8.6 6.8 11.8 10.7 3.1 4 5.7 8.2 7.8 12.6 2.1 4.4 3.8 9.1 4.8 14 1 5 1.6 10.1 0.8 15.9-5-3.1-8.6-6.8-11.8-10.7-3.1-4-5.7-8.2-7.8-12.6-2.1-4.4-3.7-9.1-4.8-14-0.9-5-1.5-10.1-0.8-15.9z" fill="#63392B" /><path d="M221.2 700.6c6.5 2.1 12 4.7 17.4 7.4 5.3 2.8 10.3 5.8 15.2 9 4.9 3.2 9.6 6.7 14.2 10.5 4.6 3.9 9.2 7.8 13.5 13.2-6.8 0.5-13.2-0.6-19.3-2.5-6.1-1.9-11.8-4.8-17-8.3-5.3-3.5-10-7.7-14.2-12.5-4.1-4.8-7.8-10.2-9.8-16.8zM430.4 641.6c6.4 2.5 11.7 5.4 16.9 8.5 5.1 3.1 10 6.4 14.7 9.9 4.7 3.5 9.2 7.3 13.6 11.3 4.4 4.2 8.8 8.4 12.7 14.1-6.9 0.1-13.2-1.4-19.1-3.7-6-2.3-11.5-5.5-16.5-9.3-5.1-3.8-9.6-8.3-13.5-13.3-3.8-5.2-7.2-10.8-8.8-17.5zM512.2 704c6.6 1.9 12.1 4.3 17.6 6.9 5.4 2.6 10.5 5.5 15.4 8.5 5 3 9.8 6.4 14.5 10 4.7 3.8 9.4 7.6 13.9 12.8-6.8 0.7-13.2-0.2-19.3-2-6.1-1.8-11.9-4.4-17.2-7.7-5.4-3.3-10.3-7.3-14.6-12-4.3-4.7-8.2-10-10.3-16.5zM609 773.2c5.8 1 10.5 2.5 15 4.3 4.5 1.8 8.7 3.9 12.8 6.2 4.1 2.3 8 4.9 11.8 7.9 3.8 3.1 7.6 6.3 11.3 10.9-5.7 1.4-11.1 1.2-16.2 0.1-5.2-1-10-3-14.5-5.5s-8.6-5.8-12.2-9.7c-3.5-4-6.6-8.5-8-14.2zM324.9 774.4c6.7 1.1 12.5 2.8 18.1 4.8 5.6 2 11 4.2 16.2 6.7 5.3 2.4 10.4 5.2 15.5 8.2 5.1 3.2 10.2 6.4 15.2 11.1-6.6 1.5-13.1 1.4-19.3 0.4-6.3-1-12.3-3-17.9-5.7-5.7-2.6-11-6.1-15.8-10.2-4.7-4.3-9.1-9.1-12-15.3zM439.9 826.2c7.2 0.6 13.6 1.9 19.8 3.4 6.2 1.6 12.2 3.4 18.2 5.5 5.9 2.1 11.8 4.4 17.6 7 5.8 2.8 11.7 5.6 17.6 9.8-6.9 2.1-13.9 2.5-20.6 2-6.8-0.5-13.4-2-19.8-4.2s-12.4-5.2-18.1-9c-5.5-3.9-10.8-8.4-14.7-14.5zM321 676.3c6.2 2.9 11.5 6 16.6 9.1 5 3.2 9.8 6.5 14.5 9.8 4.7 3.4 9.3 6.9 13.9 10.6 4.6 3.9 9.3 7.6 14 12.7-6.8 0.9-13.5 0-19.7-2-6.2-2-12.1-5-17.3-8.8-5.3-3.8-9.9-8.3-13.8-13.6-3.8-5.1-7-11-8.2-17.8zM423.8 736.1c6.6 1.8 12.2 4 17.7 6.4 5.4 2.4 10.6 5 15.7 7.7s10 5.6 15.1 8.7c5 3.3 10 6.4 15.2 11.1-6.6 1.6-13.3 1.5-19.6 0.3-6.3-1.2-12.4-3.4-18-6.5-5.6-3-10.8-6.8-15.3-11.4-4.5-4.6-8.5-9.8-10.8-16.3zM526.6 798.1c5.7 0.5 10.4 1.6 14.9 2.9 4.5 1.3 8.7 2.7 12.8 4.3 4.1 1.7 8.1 3.4 12.2 5.5 4.1 2.2 8.3 4.2 13 7.7-4.9 3-10.3 4.2-15.6 4.2-5.3 0-10.5-1-15.3-3-4.8-1.9-9.3-4.7-13.1-8.2-3.8-3.6-7.1-7.9-8.9-13.4z" fill="#63392B" /><path d="M823.7 322.2c5.1 4.7 8.4 10.3 10.9 16.1 2.5 5.8 4.2 12 5 18.2 0.8 6.2 1 12.6 0.1 18.9-0.9 6.3-2.6 12.6-6.1 18.5-3-6.2-4.5-12.1-6.1-17.9-1.4-5.8-2.5-11.6-3.2-17.4-0.8-5.8-1.3-11.6-1.5-17.6-0.2-5.9-0.1-12 0.9-18.8zM679.6 485.1c5.4 4.4 9 9.8 11.9 15.5 2.8 5.7 4.9 11.7 6.1 17.9 1.2 6.2 1.7 12.5 1.2 18.9-0.5 6.4-1.9 12.7-5 18.9-3.4-6-5.3-11.8-7.1-17.6-1.7-5.8-3.2-11.4-4.3-17.2-1.1-5.8-2-11.5-2.6-17.5-0.4-6-0.7-12.1-0.2-18.9zM700.3 585.8c5 4.8 8.1 10.5 10.5 16.4 2.3 5.9 3.8 12.1 4.5 18.3 0.7 6.3 0.6 12.6-0.5 18.9-1 6.3-3 12.5-6.6 18.3-2.8-6.3-4.2-12.2-5.5-18.1-1.2-5.9-2.1-11.6-2.7-17.4-0.6-5.8-1-11.6-1-17.6-0.1-6 0.2-12.1 1.3-18.8zM720.6 703.1c4.5 3.8 7.2 8.6 9.3 13.4 2 4.9 3.1 10 3.5 15.2 0.3 5.2 0 10.4-1.3 15.5s-3.4 10.1-7.2 14.6c-2.6-5.3-3.9-10.1-5-14.9-1-4.8-1.6-9.4-1.9-14.1-0.3-4.7-0.3-9.4 0-14.2 0.3-5 1-9.9 2.6-15.5zM845.1 447.7c4.4 5.3 6.8 11.3 8.5 17.4 1.6 6.1 2.4 12.4 2.3 18.6-0.1 6.3-0.9 12.5-2.7 18.6-1.8 6.1-4.5 12-8.7 17.3-2-6.6-2.7-12.6-3.4-18.5-0.5-5.9-0.8-11.7-0.7-17.5 0.1-5.8 0.4-11.6 1-17.5 0.8-5.9 1.8-11.9 3.7-18.4zM841.8 573.8c3.8 6.2 5.6 13 6.6 19.6 1 6.7 1.1 13.5 0.3 20.2-0.7 6.7-2.3 13.3-4.8 19.6-2.4 6.3-5.8 12.4-10.7 17.7-1.3-7.2-1.2-13.7-1.2-20.1 0.2-6.4 0.6-12.7 1.3-18.9 0.7-6.2 1.7-12.5 3-18.8 1.3-6.3 2.9-12.6 5.5-19.3zM758.4 401.6c5.6 4.1 9.5 9.5 12.6 15.2 3 5.7 5.1 11.9 6.2 18.3 1.2 6.4 1.4 12.9 0.4 19.4-0.9 6.4-3 12.8-6.7 18.6-2.6-6.5-3.9-12.3-5.4-18.1-1.3-5.8-2.5-11.4-3.5-17.1-1-5.7-1.9-11.4-2.6-17.3-0.6-6.1-1.1-12.2-1-19zM767.6 520.2c4.9 4.9 7.8 10.8 10 16.8 2.1 6 3.3 12.4 3.6 18.7 0.3 6.4-0.3 12.8-2 19-1.6 6.2-4.4 12.3-8.7 17.5-1.9-6.6-2.6-12.6-3.4-18.5-0.6-5.9-1.1-11.6-1.3-17.4-0.2-5.8-0.3-11.5-0.1-17.5 0.2-5.9 0.6-11.9 1.9-18.6zM778.8 639.7c4.2 4 6.6 8.8 8.2 13.8 1.5 5 2 10.2 1.7 15.4-0.3 5.2-1.6 10.3-3.9 15.1-2.2 4.8-5.7 9.1-10.5 12.2-1.1-5.7-1.1-10.4-1.3-15-0.1-4.6 0.1-8.9 0.3-13.3 0.3-4.4 0.8-8.8 1.6-13.4 0.9-4.7 1.9-9.4 3.9-14.8z" fill="#63392B" /></svg>